<svg xmlns="http://www.w3.org/2000/svg" xmlns:xlink="http://www.w3.org/1999/xlink" width="538.755" height="695.68" viewBox="0 0 538.755 695.68">
  <defs>
    <linearGradient id="linear-gradient" x1="0.17" y1="1.143" x2="0.669" y2="0.458" gradientUnits="objectBoundingBox">
      <stop offset="0" stop-color="#1a237e" stop-opacity="0.4"/>
      <stop offset="1" stop-color="#1a237e" stop-opacity="0"/>
    </linearGradient>
  </defs>
  <g id="flutter_app" data-name="flutter app" transform="translate(-417.777 -524)">
    <path id="Path_22" data-name="Path 22" d="M757.927,267.443h-3.821V162.753a60.594,60.594,0,0,0-60.594-60.594H471.706a60.594,60.594,0,0,0-60.594,60.594V737.1a60.594,60.594,0,0,0,60.594,60.594H693.512A60.593,60.593,0,0,0,754.1,737.1V341.962h3.821Z" transform="translate(38.5 421.841)" fill="#3f3d56"/>
    <path id="Path_23" data-name="Path 23" d="M695.957,117.918H667.006A21.5,21.5,0,0,1,647.1,147.535H520.029a21.5,21.5,0,0,1-19.9-29.617H473.083a45.251,45.251,0,0,0-45.251,45.251V736.678a45.251,45.251,0,0,0,45.251,45.251H695.957a45.251,45.251,0,0,0,45.251-45.251h0V163.168a45.251,45.251,0,0,0-45.25-45.25Z" transform="translate(38.5 421.841)" fill="#fff"/>
    <path id="Path_5" data-name="Path 5" d="M728.6,797.767H191.158c-.363,0-.658-.448-.658-1s.295-1,.658-1H728.6c.363,0,.658.448.658,1S728.96,797.767,728.6,797.767Z" transform="translate(227.277 421.841)" fill="#3f3d56"/>
    <path id="Path_6" data-name="Path 6" d="M639.613,684.3H627.354l-5.833-47.288h18.1Z" transform="translate(229 524)" fill="#ffb8b8"/>
    <path id="Path_7" data-name="Path 7" d="M618.6,680.793H642.24V695.68H603.71A14.887,14.887,0,0,1,618.6,680.793Z" transform="translate(229 524)" fill="#2f2e41"/>
    <path id="Path_8" data-name="Path 8" d="M685.613,684.3H673.354l-5.833-47.288h18.1Z" transform="translate(229 524)" fill="#ffb8b8"/>
    <path id="Path_9" data-name="Path 9" d="M664.6,680.793H688.24V695.68H649.71A14.887,14.887,0,0,1,664.6,680.793Z" transform="translate(229 524)" fill="#2f2e41"/>
    <path id="Path_10" data-name="Path 10" d="M874.616,645.618a10.743,10.743,0,0,1-2.062-16.343l-8.073-114.558,23.253,2.255.639,112.187a10.8,10.8,0,0,1-13.757,16.459Z" transform="translate(38.5 421.841)" fill="#ffb8b8"/>
    <path id="Path_11" data-name="Path 11" d="M829.534,762.633l-13.5-.644a4.5,4.5,0,0,1-4.286-4.462L810.81,620.97a4.5,4.5,0,0,1,5.146-4.485l53.994,7.838a4.474,4.474,0,0,1,3.854,4.42l6.944,126.534a4.5,4.5,0,0,1-4.5,4.534H861.7a4.479,4.479,0,0,1-4.445-3.8l-8.977-57.067a3.5,3.5,0,0,0-6.933.128l-7.126,59.6a4.517,4.517,0,0,1-4.469,3.966Q829.642,762.639,829.534,762.633Z" transform="translate(38.5 421.841)" fill="#2f2e41"/>
    <path id="Path_12" data-name="Path 12" d="M839.035,628.749c-11.9-6.611-21.2-8.349-25.68-8.8a4.419,4.419,0,0,1-3.054-1.673,4.478,4.478,0,0,1-.931-3.4l12.938-96.051a33.219,33.219,0,0,1,19.364-25.957,32.306,32.306,0,0,1,31.4,2.461q.665.442,1.305.9a33.178,33.178,0,0,1,12.636,34.573c-7.934,32.455-10.659,85.662-11.125,96a4.466,4.466,0,0,1-2.918,4,45.085,45.085,0,0,1-15.226,2.711,38.125,38.125,0,0,1-18.705-4.774Z" transform="translate(38.5 421.841)" fill="#212529"/>
    <path id="Path_13" data-name="Path 13" d="M869.745,553.21a4.482,4.482,0,0,1-1.859-3.4l-1.7-30.876a12.4,12.4,0,0,1,24.346-3.927l7.485,27.6a4.505,4.505,0,0,1-3.166,5.521L873.557,553.9a4.483,4.483,0,0,1-3.812-.695Z" transform="translate(38.5 421.841)" fill="#212529"/>
    <circle id="Ellipse_1" data-name="Ellipse 1" cx="24.561" cy="24.561" r="24.561" transform="translate(863.796 852.547)" fill="#ffb8b8"/>
    <path id="Path_14" data-name="Path 14" d="M803.652,551.942a12.387,12.387,0,0,1-7.679-2.647l-41.788-32.967a10.236,10.236,0,0,1-1.036.306,11.021,11.021,0,0,1-8.818-1.691,11,11,0,1,1,17.009-11.534h0a10.622,10.622,0,0,1,.229,1.452l42.481,24.507,10.572-6.086,11.711,15.332-15.495,11.044A12.375,12.375,0,0,1,803.652,551.942Z" transform="translate(38.5 421.841)" fill="#ffb8b8"/>
    <path id="Path_15" data-name="Path 15" d="M805.584,527.837a4.482,4.482,0,0,1,1.293-3.653l21.863-21.868a12.4,12.4,0,0,1,19.168,15.516l-15.57,23.992a4.5,4.5,0,0,1-6.224,1.325l-18.5-12.009A4.483,4.483,0,0,1,805.584,527.837Z" transform="translate(38.5 421.841)" fill="#212529"/>
    <path id="Path_16" data-name="Path 16" d="M856.758,478.24a3.974,3.974,0,0,0,5.69.327,44.426,44.426,0,0,0,12.672-16.549c3.193-7.611,3.661-16.9.027-24.033-3.072-6.031-8.587-9.87-14.092-13.007a22.993,22.993,0,0,0-6.848-2.894,8.994,8.994,0,0,0-7.154,1.407,7.544,7.544,0,0,0-2.878,7.227,22.354,22.354,0,0,0-9.8-7.357,11.365,11.365,0,0,0-7.554-.506c-3.536,1.18-6.153,4.75-7.609,8.586a19.14,19.14,0,0,0-1.255,9.264,11.129,11.129,0,0,0,4.269,7.671c2.884,1.99,6.6,1.788,9.953.907s6.609-2.374,10.021-2.79,7.194.486,9.227,3.53c1.432,2.143,1.769,4.967,2.061,7.658l1.519,14a18.546,18.546,0,0,0,1.278,5.84A3.251,3.251,0,0,0,856.758,478.24Z" transform="translate(38.5 421.841)" fill="#2f2e41"/>
    <g id="Group_1" data-name="Group 1" transform="translate(229 524)">
      <path id="Path_17" data-name="Path 17" d="M467.814,574.842H501.7v6.631H474.69v20.054h24.391v6.547H474.69v25.371h-6.876Z" transform="translate(-190.5 -102.16)" fill="#3f3d56"/>
      <path id="Path_18" data-name="Path 18" d="M509.881,574.842h6.953v58.6h-6.953Z" transform="translate(-190.5 -102.16)" fill="#3f3d56"/>
      <path id="Path_19" data-name="Path 19" d="M530.792,630.326q-3.973-4.417-3.97-12.36V591.7h6.953v25.209q0,5.974,2.7,8.758a9.672,9.672,0,0,0,7.282,2.784,10.764,10.764,0,0,0,6.257-1.882,12.754,12.754,0,0,0,4.253-4.91,14.049,14.049,0,0,0,1.514-6.386V591.7h6.96v41.738h-6.631v-6.057h-.329a13.784,13.784,0,0,1-5.484,5.239,16.059,16.059,0,0,1-8.023,2.127Q534.765,634.746,530.792,630.326Z" transform="translate(-190.5 -102.16)" fill="#3f3d56"/>
      <path id="Path_20" data-name="Path 20" d="M584.806,633.915a10.692,10.692,0,0,1-3.641-2.249A10.238,10.238,0,0,1,578.71,628a13.9,13.9,0,0,1-.819-5.084V598H570.61v-6.3h7.282V579.914h6.953V591.7h10.149V598h-10.15v23.257a8.4,8.4,0,0,0,1.308,5.187,5.559,5.559,0,0,0,4.5,1.843,8.462,8.462,0,0,0,4.582-1.392v6.792a10.658,10.658,0,0,1-2.494.818,17.721,17.721,0,0,1-3.235.245,13.148,13.148,0,0,1-4.7-.838Z" transform="translate(-190.5 -102.16)" fill="#3f3d56"/>
      <path id="Path_21" data-name="Path 21" d="M614.346,633.915a10.69,10.69,0,0,1-3.641-2.249A10.237,10.237,0,0,1,608.25,628a13.9,13.9,0,0,1-.818-5.084V598H600.15v-6.3h7.282V579.914h6.953V591.7h10.149V598H614.385v23.257a8.4,8.4,0,0,0,1.308,5.188,5.559,5.559,0,0,0,4.5,1.843,8.462,8.462,0,0,0,4.582-1.392v6.792a10.661,10.661,0,0,1-2.494.818,17.727,17.727,0,0,1-3.235.245,13.2,13.2,0,0,1-4.7-.838Z" transform="translate(-190.5 -102.16)" fill="#3f3d56"/>
      <path id="Path_22-2" data-name="Path 22" d="M639.027,631.879a19.871,19.871,0,0,1-7.4-7.894,23.9,23.9,0,0,1-2.661-11.335,24.892,24.892,0,0,1,2.494-11.129,20.134,20.134,0,0,1,7.082-8.1,18.858,18.858,0,0,1,10.639-3.029,20.094,20.094,0,0,1,10.639,2.739,18.191,18.191,0,0,1,6.914,7.572,24.373,24.373,0,0,1,2.417,11.052,8.245,8.245,0,0,1-.245,2.126H635.921a16.476,16.476,0,0,0,2.294,8.023,13.33,13.33,0,0,0,5.194,4.91,14.059,14.059,0,0,0,6.586,1.637q8.023,0,12.36-7.527l5.89,2.868a20.981,20.981,0,0,1-7.327,8.023,22.018,22.018,0,0,1-21.891.064Zm22.748-23.734a13.506,13.506,0,0,0-1.476-5.239,11.244,11.244,0,0,0-4.131-4.421,12.939,12.939,0,0,0-7.082-1.8,11.758,11.758,0,0,0-8.306,3.151,15.176,15.176,0,0,0-4.459,8.306Z" transform="translate(-190.5 -102.16)" fill="#3f3d56"/>
      <path id="Path_23-2" data-name="Path 23" d="M677.24,591.7h6.631v6.708h.329a11.349,11.349,0,0,1,4.749-5.729,13.3,13.3,0,0,1,7.366-2.294,12.17,12.17,0,0,1,4.91.9v7.449a13.036,13.036,0,0,0-5.89-1.308,9.728,9.728,0,0,0-5.568,1.721,12.44,12.44,0,0,0-4.053,4.633,13.374,13.374,0,0,0-1.514,6.277v23.379h-6.953V591.7Z" transform="translate(-190.5 -102.16)" fill="#3f3d56"/>
    </g>
    <path id="Path_24" data-name="Path 24" d="M415.712,337.858l91.053,91.482-86-1-32-32Z" transform="translate(229 524)" fill="#01579b"/>
    <path id="Path_25" data-name="Path 25" d="M452.618,374.938l-63.853,21.4,39.067-46.507Z" transform="translate(229 524)" fill="url(#linear-gradient)"/>
    <path id="Path_26" data-name="Path 26" d="M506.155,149.89,324.125,331.94l-42.85-42.84,139.22-139.21Z" transform="translate(229 524)" fill="#54c5f8"/>
    <path id="Path_27" data-name="Path 27" d="M345.265,353.84l75-75h86l-118,117Z" transform="translate(229 524)" fill="#54c5f8"/>
    <path id="Path_28" data-name="Path 28" d="M388.361,310.52l42.849,42.829L388.765,396.34l-43-42Z" transform="translate(229 524)" fill="#29b6f6"/>
  </g>
</svg>
