<svg xmlns="http://www.w3.org/2000/svg" width="262" height="235" viewBox="0 0 262 235">
  <g id="Logo_Design" data-name="Logo Design" transform="translate(-325 -194)">
    <rect id="Rectangle_8" data-name="Rectangle 8" width="175" height="78" transform="translate(325 194)" fill="#212529"/>
    <path id="Path_14" data-name="Path 14" d="M409.215,338.862" transform="translate(3.707 -72.799)" fill="#212529"/>
    <path id="Path_15" data-name="Path 15" d="M87,150v84l91-81Z" transform="translate(238 116)" fill="#212529"/>
    <path id="Path_16" data-name="Path 16" d="M496.293,341.8v3l-1.14,1.01-2.3,2.04c-44.73,1.35-80.86,33.39-82.49,73.12l-2.05,1.82-.02.01v-84Z" transform="translate(3.707 -72.799)" fill="#212529"/>
    <path id="Path_17" data-name="Path 17" d="M495.793,345.8c-.21,0-.43,0-.64.01-47.58.3-86.25,34.62-86.84,76.98-.02.34-.02.67-.02,1.01,0,43.01,39.25,78,87.5,78s87.5-34.99,87.5-78S544.043,345.8,495.793,345.8Zm0,154c-47.14,0-85.5-34.09-85.5-76,0-.95.02-1.89.07-2.83,1.63-39.73,37.76-71.77,82.49-73.12.97-.04,1.95-.05,2.94-.05,47.14,0,85.5,34.09,85.5,76S542.933,499.8,495.793,499.8Z" transform="translate(3.707 -72.799)" fill="#e6e6e6"/>
    <path id="Path_18" data-name="Path 18" d="M447.793,422.815l-5-.028c0-.445.8-44.48,51.951-47.535l.3,4.991C448.654,383.014,447.807,421.192,447.793,422.815Z" transform="translate(3.707 -72.799)" fill="#e6e6e6"/>
    <path id="Path_19" data-name="Path 19" d="M546.273,421.8a42.536,42.536,0,0,0-13.98-30.11,53.437,53.437,0,0,0-36.4-13.95h-.1c-27.47,0-49.89,19.67-50.48,44.06-.02.33-.02.67-.02,1,0,12.76,5.97,24.29,15.55,32.49a53.643,53.643,0,0,0,34.95,12.57h.1c27.8-.05,50.4-20.24,50.4-45.06C546.293,422.469,546.293,422.129,546.273,421.8Z" transform="translate(3.707 -72.799)" fill="#e6e6e6"/>
    <path id="Path_20" data-name="Path 20" d="M532.293,391.689l-1.5,1.33-68.45,60.94-1.5,1.33c-9.58-8.2-15.55-19.73-15.55-32.49,0-.33,0-.67.02-1,.59-24.39,23.01-44.06,50.48-44.06h.1a53.437,53.437,0,0,1,36.4,13.95Z" transform="translate(3.707 -72.799)" fill="#212529"/>
  </g>
</svg>
