<svg xmlns="http://www.w3.org/2000/svg" width="622.866" height="436.38" viewBox="0 0 622.866 436.38">
  <g id="responsive_devices" data-name="responsive devices" transform="translate(-404.51 -709)">
    <path id="Path_9" data-name="Path 9" d="M322.185,528.7a26.1,26.1,0,0,0-.76-19c-.262-.6.676-.97.938-.375a27.144,27.144,0,0,1,.751,19.776C322.9,529.715,321.972,529.313,322.185,528.7Z" transform="translate(113.831 477.19)" fill="#fff"/>
    <path id="Path_10" data-name="Path 10" d="M291,482.928a7.664,7.664,0,0,0,5.32-4.958c.207-.617,1.134-.215.928.4a8.588,8.588,0,0,1-5.873,5.5.522.522,0,0,1-.656-.281.508.508,0,0,1,.281-.656Z" transform="translate(113.831 477.19)" fill="#fff"/>
    <path id="Path_14" data-name="Path 14" d="M903.2,552.974a26.1,26.1,0,0,1,10.148-16.084c.524-.385-.1-1.178-.625-.793A27.144,27.144,0,0,0,902.2,552.855c-.121.64.883.755,1,.119Z" transform="translate(113.831 477.19)" fill="#fff"/>
    <path id="Path_17" data-name="Path 17" d="M904.144,463.572a90.245,90.245,0,0,1-8.866,54.812,38.859,38.859,0,0,1-7,9.962,22.29,22.29,0,0,1-10.282,5.648c-3.591.94-7.373,1.486-10.673,3.283a13.648,13.648,0,0,0-6.63,8.979c-1.144,4.656-.546,9.445.2,14.109.83,5.178,1.773,10.543.217,15.681-.189.623.788.879.977.257,2.708-8.939-1.817-17.957-.9-27,.43-4.217,2.133-8.331,5.825-10.678,3.229-2.052,7.128-2.619,10.773-3.539a23.784,23.784,0,0,0,10.259-5.147,35.928,35.928,0,0,0,7.359-9.656,87.555,87.555,0,0,0,9.137-25.794,91.845,91.845,0,0,0,.575-31.191c-.1-.641-1.071-.366-.973.271Z" transform="translate(113.831 477.19)" fill="#fff"/>
    <path id="Path_19" data-name="Path 19" d="M879.878,533.757A26.1,26.1,0,0,1,878.3,514.8c.186-.623-.791-.88-.977-.257a27.144,27.144,0,0,0,1.685,19.719c.289.584,1.159.072.872-.509Z" transform="translate(113.831 477.19)" fill="#fff"/>
    <path id="Path_20" data-name="Path 20" d="M905.2,484.5a7.664,7.664,0,0,1-5.889-4.267c-.281-.587-1.152-.074-.872.509a8.588,8.588,0,0,0,6.5,4.735.522.522,0,0,0,.617-.36.508.508,0,0,0-.36-.617Z" transform="translate(113.831 477.19)" fill="#fff"/>
    <path id="Path_21" data-name="Path 21" d="M871.5,246.81H727.708v9.25a2.04,2.04,0,0,0,.46,1.3c-.29,7.23-.46,16.46-.46,26.49v247.3c0,23.18.93,42.04,2.07,42.04h139.65c1.14,0,2.07-18.86,2.07-42.04V283.85c0-10.03-.17-19.26-.46-26.49a2.04,2.04,0,0,0,.46-1.3Z" transform="translate(113.831 477.19)" fill="#fff"/>
    <path id="Path_22" data-name="Path 22" d="M869.429,574.19H729.779c-1.088,0-1.807,0-2.461-13.278-.393-7.968-.609-18.538-.609-29.762V283.85c0-9.694.164-19.116.461-26.53.186-4.452.4-8.018.633-10.6.459-5.056.9-5.91,1.976-5.91h139.65c1.079,0,1.516.854,1.976,5.91.235,2.592.448,6.158.633,10.6v0c.3,7.407.461,16.829.461,26.53v247.3c0,11.224-.216,21.794-.609,29.762C871.236,574.19,870.517,574.19,869.429,574.19Zm-139.082-2H868.86c.724-2.733,1.638-17.57,1.638-41.04V283.85c0-9.675-.163-19.068-.459-26.448h0c-.184-4.408-.4-7.941-.626-10.5a28.886,28.886,0,0,0-.562-4.09H730.356a28.894,28.894,0,0,0-.562,4.09c-.231,2.55-.442,6.084-.627,10.5-.3,7.387-.459,16.78-.459,26.448v247.3c0,23.469.915,38.307,1.639,41.04Z" transform="translate(113.831 477.19)" fill="#e4e4e4"/>
    <path id="Path_23" data-name="Path 23" d="M869.429,241.81H729.779a2.074,2.074,0,0,0-2.07,2.07v12.18a2.04,2.04,0,0,0,.461,1.3,2.08,2.08,0,0,0,1.61.77h139.65a2.08,2.08,0,0,0,1.61-.77,2.04,2.04,0,0,0,.46-1.3V243.88A2.074,2.074,0,0,0,869.429,241.81Z" transform="translate(113.831 477.19)" fill="#cacaca"/>
    <circle id="Ellipse_90" data-name="Ellipse 90" cx="2.94" cy="2.94" r="2.94" transform="translate(850.62 723.626)" fill="#fff"/>
    <circle id="Ellipse_91" data-name="Ellipse 91" cx="2.94" cy="2.94" r="2.94" transform="translate(861.778 723.626)" fill="#fff"/>
    <circle id="Ellipse_92" data-name="Ellipse 92" cx="2.94" cy="2.94" r="2.94" transform="translate(872.936 723.626)" fill="#fff"/>
    <path id="Path_24" data-name="Path 24" d="M858.5,245.45h-12.85a.956.956,0,0,0-.95.95.8.8,0,0,0,.1.41.943.943,0,0,0,.85.54H858.5a.948.948,0,0,0,.86-.54.913.913,0,0,0,.09-.41.95.95,0,0,0-.95-.95Z" transform="translate(113.831 477.19)" fill="#fff"/>
    <path id="Path_25" data-name="Path 25" d="M858.5,249.02h-12.85a.95.95,0,1,0,0,1.9H858.5a.95.95,0,1,0,0-1.9Z" transform="translate(113.831 477.19)" fill="#fff"/>
    <path id="Path_26" data-name="Path 26" d="M858.5,252.59h-12.85a.95.95,0,1,0,0,1.9H858.5a.95.95,0,1,0,0-1.9Z" transform="translate(113.831 477.19)" fill="#fff"/>
    <path id="Path_27" data-name="Path 27" d="M813.5,284.83h-26.44a5,5,0,0,0-5,5v22.9a5.008,5.008,0,0,0,5,5H813.5a5.015,5.015,0,0,0,5-5v-22.9a5.008,5.008,0,0,0-5-5Z" transform="translate(113.831 477.19)" fill="#212529"/>
    <path id="Path_28" data-name="Path 28" d="M846.349,332.69H754.2a2.27,2.27,0,1,0,0,4.54h92.15a2.27,2.27,0,1,0,0-4.54Z" transform="translate(113.831 477.19)" fill="#e4e4e4"/>
    <path id="Path_29" data-name="Path 29" d="M789.2,343.33h-35a2.27,2.27,0,1,0,0,4.54h35a2.27,2.27,0,0,0,0-4.54Z" transform="translate(113.831 477.19)" fill="#e4e4e4"/>
    <path id="Path_30" data-name="Path 30" d="M813.5,383.83h-26.44a5,5,0,0,0-5,5v22.9a5.008,5.008,0,0,0,5,5H813.5a5.015,5.015,0,0,0,5-5v-22.9a5.008,5.008,0,0,0-5-5Z" transform="translate(113.831 477.19)" fill="#212529"/>
    <path id="Path_31" data-name="Path 31" d="M846.349,431.69H754.2a2.27,2.27,0,1,0,0,4.54h92.15a2.27,2.27,0,1,0,0-4.54Z" transform="translate(113.831 477.19)" fill="#e4e4e4"/>
    <path id="Path_32" data-name="Path 32" d="M789.2,442.33h-35a2.27,2.27,0,1,0,0,4.54h35a2.27,2.27,0,0,0,0-4.54Z" transform="translate(113.831 477.19)" fill="#e4e4e4"/>
    <path id="Path_33" data-name="Path 33" d="M813.5,482.83h-26.44a5,5,0,0,0-5,5v22.9a5.008,5.008,0,0,0,5,5H813.5a5.015,5.015,0,0,0,5-5v-22.9a5.008,5.008,0,0,0-5-5Z" transform="translate(113.831 477.19)" fill="#212529"/>
    <path id="Path_34" data-name="Path 34" d="M846.349,530.69H754.2a2.27,2.27,0,1,0,0,4.54h92.15a2.27,2.27,0,0,0,0-4.54Z" transform="translate(113.831 477.19)" fill="#e4e4e4"/>
    <path id="Path_35" data-name="Path 35" d="M789.2,541.33h-35a2.27,2.27,0,0,0,0,4.54h35a2.27,2.27,0,1,0,0-4.54Z" transform="translate(113.831 477.19)" fill="#e4e4e4"/>
    <g id="Group_1" data-name="Group 1">
      <path id="Path_36" data-name="Path 36" d="M688.5,234.88a2.074,2.074,0,0,0-2.07-2.07H316.779a2.074,2.074,0,0,0-2.07,2.07v12.18a2.017,2.017,0,0,0,.53,1.37c-.33,8.27-.53,19.17-.53,31.11V554.45c0,25.78.93,46.74,2.07,46.74h369.65c1.14,0,2.07-20.96,2.07-46.74V279.54c0-11.94-.2-22.84-.53-31.11a2.016,2.016,0,0,0,.53-1.37Z" transform="translate(113.831 477.19)" fill="#fff"/>
    </g>
    <path id="Path_37" data-name="Path 37" d="M686.429,602.19H316.779c-1.13,0-1.812,0-2.462-14.658-.392-8.855-.609-20.6-.609-33.082V279.54c0-11.507.189-22.57.531-31.15.657-16.58,1.406-16.58,2.539-16.58h369.65c1.133,0,1.882,0,2.539,16.58h0c.342,8.572.531,19.635.531,31.15V554.45c0,12.479-.216,24.227-.608,33.082C688.241,602.19,687.558,602.19,686.429,602.19Zm-369.066-2H685.845c.818-3.135,1.654-20.74,1.654-45.74V279.54c0-11.489-.188-22.524-.529-31.07h0c-.417-10.5-.9-13.7-1.135-14.66H317.373c-.233.96-.719,4.156-1.135,14.66-.341,8.555-.529,19.589-.529,31.07V554.45c0,25,.836,42.6,1.654,45.74Z" transform="translate(113.831 477.19)" fill="#e4e4e4"/>
    <path id="Path_38" data-name="Path 38" d="M686.429,232.81H316.779a2.074,2.074,0,0,0-2.07,2.07v12.18a2.017,2.017,0,0,0,.53,1.37,2.051,2.051,0,0,0,1.54.7h369.65a2.051,2.051,0,0,0,1.54-.7,2.016,2.016,0,0,0,.53-1.37V234.88a2.074,2.074,0,0,0-2.07-2.07Z" transform="translate(113.831 477.19)" fill="#cacaca"/>
    <circle id="Ellipse_90-2" data-name="Ellipse 90" cx="2.94" cy="2.94" r="2.94" transform="translate(437.62 714.626)" fill="#fff"/>
    <circle id="Ellipse_91-2" data-name="Ellipse 91" cx="2.94" cy="2.94" r="2.94" transform="translate(448.778 714.626)" fill="#fff"/>
    <circle id="Ellipse_92-2" data-name="Ellipse 92" cx="2.94" cy="2.94" r="2.94" transform="translate(459.936 714.626)" fill="#fff"/>
    <path id="Path_39" data-name="Path 39" d="M675.5,236.45h-12.85a.95.95,0,1,0,0,1.9H675.5a.95.95,0,1,0,0-1.9Z" transform="translate(113.831 477.19)" fill="#fff"/>
    <path id="Path_40" data-name="Path 40" d="M675.5,240.02h-12.85a.95.95,0,1,0,0,1.9H675.5a.95.95,0,1,0,0-1.9Z" transform="translate(113.831 477.19)" fill="#fff"/>
    <path id="Path_41" data-name="Path 41" d="M675.5,243.59h-12.85a.95.95,0,1,0,0,1.9H675.5a.95.95,0,1,0,0-1.9Z" transform="translate(113.831 477.19)" fill="#fff"/>
    <path id="Path_42" data-name="Path 42" d="M436.259,293.83H393a8.19,8.19,0,0,0-8.18,8.18v37.47a8.19,8.19,0,0,0,8.18,8.18h43.26a8.19,8.19,0,0,0,8.18-8.18V302.01a8.19,8.19,0,0,0-8.179-8.18Z" transform="translate(113.831 477.19)" fill="#212529"/>
    <path id="Path_43" data-name="Path 43" d="M614.688,308.32H463.909a3.715,3.715,0,1,0,0,7.43H614.688a3.715,3.715,0,1,0,0-7.43Z" transform="translate(113.831 477.19)" fill="#e4e4e4"/>
    <path id="Path_44" data-name="Path 44" d="M521.179,325.73h-57.27a3.715,3.715,0,0,0,0,7.43h57.27a3.715,3.715,0,1,0,0-7.43Z" transform="translate(113.831 477.19)" fill="#e4e4e4"/>
    <path id="Path_45" data-name="Path 45" d="M436.259,393.83H393a8.19,8.19,0,0,0-8.18,8.18v37.47a8.19,8.19,0,0,0,8.18,8.18h43.26a8.19,8.19,0,0,0,8.18-8.18V402.01A8.19,8.19,0,0,0,436.259,393.83Z" transform="translate(113.831 477.19)" fill="#212529"/>
    <path id="Path_46" data-name="Path 46" d="M614.688,408.32H463.909a3.715,3.715,0,0,0,0,7.43H614.688a3.715,3.715,0,1,0,0-7.43Z" transform="translate(113.831 477.19)" fill="#e4e4e4"/>
    <path id="Path_47" data-name="Path 47" d="M521.179,425.73h-57.27a3.715,3.715,0,1,0,0,7.43h57.27a3.715,3.715,0,1,0,0-7.43Z" transform="translate(113.831 477.19)" fill="#e4e4e4"/>
    <path id="Path_48" data-name="Path 48" d="M436.259,493.83H393a8.19,8.19,0,0,0-8.18,8.18v37.47a8.19,8.19,0,0,0,8.18,8.18h43.26a8.19,8.19,0,0,0,8.18-8.18V502.01a8.19,8.19,0,0,0-8.179-8.18Z" transform="translate(113.831 477.19)" fill="#212529"/>
    <path id="Path_49" data-name="Path 49" d="M614.688,508.32H463.909a3.715,3.715,0,1,0,0,7.43H614.688a3.715,3.715,0,1,0,0-7.43Z" transform="translate(113.831 477.19)" fill="#e4e4e4"/>
    <path id="Path_50" data-name="Path 50" d="M521.179,525.73h-57.27a3.715,3.715,0,1,0,0,7.43h57.27a3.715,3.715,0,0,0,0-7.43Z" transform="translate(113.831 477.19)" fill="#e4e4e4"/>
    <path id="Path_51" data-name="Path 51" d="M752.431,667.19H504.783c-1.142,0-2.071-17.549-2.071-39.123V397.933c0-21.574.929-39.123,2.071-39.123H752.431c1.142,0,2.07,17.549,2.07,39.123V628.067C754.5,649.641,753.573,667.19,752.431,667.19Z" transform="translate(113.831 477.19)" fill="#fff"/>
    <path id="Path_52" data-name="Path 52" d="M752.432,668.19H504.783c-1.048,0-1.8,0-2.462-12.419-.393-7.415-.609-17.254-.609-27.705V397.933c0-10.451.216-20.29.609-27.7.657-12.419,1.414-12.419,2.462-12.419H752.432c1.048,0,1.8,0,2.462,12.419.393,7.415.609,17.254.609,27.7V628.066c0,10.451-.216,20.29-.609,27.705C754.236,668.19,753.479,668.19,752.432,668.19Zm-247.1-2H751.879c.718-2.591,1.624-16.394,1.624-38.123V397.933c0-21.729-.906-35.533-1.624-38.124H505.337c-.718,2.591-1.624,16.394-1.624,38.124V628.066c0,21.73.9,35.533,1.623,38.124Z" transform="translate(113.831 477.19)" fill="#e4e4e4"/>
    <path id="Path_53" data-name="Path 53" d="M752.431,375.13H504.783a2.073,2.073,0,0,1-2.071-2.07V360.88a2.073,2.073,0,0,1,2.071-2.07H752.431a2.073,2.073,0,0,1,2.071,2.071v12.179a2.073,2.073,0,0,1-2.07,2.071Z" transform="translate(113.831 477.19)" fill="#cacaca"/>
    <circle id="Ellipse_90-3" data-name="Ellipse 90" cx="2.94" cy="2.94" r="2.94" transform="translate(625.62 840.625)" fill="#fff"/>
    <circle id="Ellipse_91-3" data-name="Ellipse 91" cx="2.94" cy="2.94" r="2.94" transform="translate(636.778 840.625)" fill="#fff"/>
    <circle id="Ellipse_92-3" data-name="Ellipse 92" cx="2.94" cy="2.94" r="2.94" transform="translate(647.936 840.625)" fill="#fff"/>
    <path id="Path_54" data-name="Path 54" d="M741.5,364.352H728.65a.952.952,0,1,1,0-1.9H741.5a.952.952,0,1,1,0,1.9Z" transform="translate(113.831 477.19)" fill="#fff"/>
    <path id="Path_55" data-name="Path 55" d="M741.5,367.921H728.65a.952.952,0,1,1,0-1.9H741.5a.952.952,0,1,1,0,1.9Z" transform="translate(113.831 477.19)" fill="#fff"/>
    <path id="Path_56" data-name="Path 56" d="M741.5,371.49H728.65a.952.952,0,1,1,0-1.9H741.5a.952.952,0,1,1,0,1.9Z" transform="translate(113.831 477.19)" fill="#fff"/>
    <path id="Path_57" data-name="Path 57" d="M580.882,450.727H549.289a5.981,5.981,0,0,1-5.975-5.974V417.389a5.981,5.981,0,0,1,5.975-5.974h31.593a5.981,5.981,0,0,1,5.975,5.974v27.363a5.981,5.981,0,0,1-5.975,5.975Z" transform="translate(113.831 477.19)" fill="#212529"/>
    <path id="Path_58" data-name="Path 58" d="M711.187,427.426H601.077a2.712,2.712,0,0,1,0-5.425h110.11a2.712,2.712,0,1,1,0,5.425Z" transform="translate(113.831 477.19)" fill="#e4e4e4"/>
    <path id="Path_59" data-name="Path 59" d="M642.9,440.14H601.077a2.712,2.712,0,1,1,0-5.425H642.9a2.712,2.712,0,1,1,0,5.425Z" transform="translate(113.831 477.19)" fill="#e4e4e4"/>
    <path id="Path_60" data-name="Path 60" d="M580.882,531.727H549.289a5.981,5.981,0,0,1-5.975-5.975V498.389a5.981,5.981,0,0,1,5.975-5.975h31.593a5.981,5.981,0,0,1,5.975,5.975v27.363a5.981,5.981,0,0,1-5.975,5.975Z" transform="translate(113.831 477.19)" fill="#212529"/>
    <path id="Path_61" data-name="Path 61" d="M711.187,508.426H601.077a2.712,2.712,0,0,1,0-5.425h110.11a2.712,2.712,0,1,1,0,5.425Z" transform="translate(113.831 477.19)" fill="#e4e4e4"/>
    <path id="Path_62" data-name="Path 62" d="M642.9,521.14H601.077a2.712,2.712,0,0,1,0-5.425H642.9a2.712,2.712,0,0,1,0,5.425Z" transform="translate(113.831 477.19)" fill="#e4e4e4"/>
    <path id="Path_63" data-name="Path 63" d="M580.882,612.727H549.289a5.981,5.981,0,0,1-5.975-5.975V579.389a5.981,5.981,0,0,1,5.975-5.975h31.593a5.981,5.981,0,0,1,5.975,5.975v27.363A5.981,5.981,0,0,1,580.882,612.727Z" transform="translate(113.831 477.19)" fill="#212529"/>
    <path id="Path_64" data-name="Path 64" d="M711.187,589.426H601.077a2.712,2.712,0,0,1,0-5.425h110.11a2.712,2.712,0,1,1,0,5.425Z" transform="translate(113.831 477.19)" fill="#e4e4e4"/>
    <path id="Path_65" data-name="Path 65" d="M642.9,602.14H601.077a2.712,2.712,0,0,1,0-5.425H642.9a2.712,2.712,0,0,1,0,5.425Z" transform="translate(113.831 477.19)" fill="#e4e4e4"/>
  </g>
</svg>
